<?xml version="1.0" encoding="UTF-8" standalone="no"?>
<svg
   xmlns:dc="http://purl.org/dc/elements/1.1/"
   xmlns:cc="http://creativecommons.org/ns#"
   xmlns:rdf="http://www.w3.org/1999/02/22-rdf-syntax-ns#"
   xmlns:svg="http://www.w3.org/2000/svg"
   xmlns="http://www.w3.org/2000/svg"
   xmlns:xlink="http://www.w3.org/1999/xlink"
   xml:space="preserve"
   width="256"
   viewBox="0 0 256 256"
   version="1.1"
   id="Facebook_Messenger"
   height="256"
   enable-background="new 0 0 512 512"><metadata
     id="metadata4253"><rdf:RDF><cc:Work
         rdf:about=""><dc:format>image/svg+xml</dc:format><dc:type
           rdf:resource="http://purl.org/dc/dcmitype/StillImage" /><dc:title></dc:title></cc:Work></rdf:RDF></metadata><defs
     id="defs4251"><linearGradient
       id="linearGradient4255"><stop
         id="stop4257"
         offset="0"
         style="stop-color:#0041be;stop-opacity:1" /><stop
         id="stop4259"
         offset="1"
         style="stop-color:#41b7ff;stop-opacity:1" /></linearGradient><linearGradient
       gradientUnits="userSpaceOnUse"
       y2="63.374268"
       x2="257.51343"
       y1="443.63159"
       x1="257.6842"
       id="linearGradient4261"
       xlink:href="#linearGradient4255" /><linearGradient
       gradientTransform="matrix(0.74124612,0,0,0.74124612,-61.500253,193.98224)"
       y2="63.374268"
       x2="257.51343"
       y1="443.63159"
       x1="257.6842"
       gradientUnits="userSpaceOnUse"
       id="linearGradient4263"
       xlink:href="#linearGradient4255" /></defs><g
     transform="translate(-50.900583,-279.95322)"
     id="Facebook_Messenger_1_"><g
       style="fill:url(#linearGradient4261);fill-opacity:1;stroke:none"
       transform="translate(49.900583,24.953216)"
       id="g4235"><path
         style="fill:url(#linearGradient4263);fill-opacity:1;stroke:none"
         id="path4237"
         d="m 129.00001,262.91813 c -65.910136,0 -119.3406353,49.77986 -119.3406353,111.18692 0,34.99052 17.3540493,66.20069 44.4747693,86.58199 l 0,42.39483 40.63511,-22.43974 c 10.843696,3.01983 22.332266,4.64983 34.230756,4.64983 65.91012,0 119.34062,-49.77986 119.34062,-111.18691 0,-61.40706 -53.4305,-111.18692 -119.34062,-111.18692 z m 11.85993,149.73171 -30.39109,-32.61483 -59.299696,32.61483 65.229666,-69.67713 31.13234,32.61483 58.55844,-32.61483 -65.22966,69.67713 z" /></g></g><g
     transform="translate(0,-256)"
     style="opacity:0.10199998"
     id="Shadow_Clip_6_"><g
       id="g4245" /></g></svg>